<mxfile host="app.diagrams.net" modified="2024-04-10T22:17:02.041Z" agent="Mozilla/5.0 (Macintosh; Intel Mac OS X 10_15_7) AppleWebKit/537.36 (KHTML, like Gecko) Chrome/123.0.0.0 Safari/537.36" etag="Aw_kPXbSoc7KSTP_2Jfp" version="24.2.3" type="device">
  <diagram name="Page-1" id="zKIGPbWKKwjHIFYuE0Dd">
    <mxGraphModel dx="1553" dy="866" grid="1" gridSize="10" guides="1" tooltips="1" connect="1" arrows="1" fold="1" page="1" pageScale="1" pageWidth="850" pageHeight="1100" math="0" shadow="0">
      <root>
        <mxCell id="0" />
        <mxCell id="1" parent="0" />
        <mxCell id="BOXuw702CfrsA8beuOnQ-26" value="" style="rounded=1;whiteSpace=wrap;html=1;" vertex="1" parent="1">
          <mxGeometry x="840" y="340" width="225" height="201.56" as="geometry" />
        </mxCell>
        <mxCell id="BOXuw702CfrsA8beuOnQ-3" value="" style="endArrow=classic;html=1;rounded=0;exitX=1;exitY=0.5;exitDx=0;exitDy=0;exitPerimeter=0;entryX=0;entryY=0.5;entryDx=0;entryDy=0;" edge="1" parent="1" source="BOXuw702CfrsA8beuOnQ-45" target="BOXuw702CfrsA8beuOnQ-5">
          <mxGeometry width="50" height="50" relative="1" as="geometry">
            <mxPoint x="1028.31" y="477.76" as="sourcePoint" />
            <mxPoint x="1150" y="687.4999999999998" as="targetPoint" />
            <Array as="points">
              <mxPoint x="1090" y="470" />
              <mxPoint x="1090" y="800" />
            </Array>
          </mxGeometry>
        </mxCell>
        <mxCell id="BOXuw702CfrsA8beuOnQ-5" value="" style="whiteSpace=wrap;html=1;aspect=fixed;" vertex="1" parent="1">
          <mxGeometry x="1150" y="760" width="80" height="80" as="geometry" />
        </mxCell>
        <mxCell id="BOXuw702CfrsA8beuOnQ-7" value="" style="ellipse;shape=cloud;whiteSpace=wrap;html=1;" vertex="1" parent="1">
          <mxGeometry x="1310" y="290" width="520" height="420" as="geometry" />
        </mxCell>
        <mxCell id="BOXuw702CfrsA8beuOnQ-8" value="Object Storage" style="text;html=1;align=center;verticalAlign=middle;resizable=0;points=[];autosize=1;strokeColor=none;fillColor=none;" vertex="1" parent="1">
          <mxGeometry x="1140" y="850" width="100" height="30" as="geometry" />
        </mxCell>
        <mxCell id="BOXuw702CfrsA8beuOnQ-9" value="Biweekly&amp;nbsp;&lt;div&gt;&lt;span style=&quot;background-color: initial;&quot;&gt;&amp;nbsp;Datapush&lt;/span&gt;&lt;/div&gt;&lt;div&gt;&lt;span style=&quot;background-color: initial;&quot;&gt;(Manual)&lt;/span&gt;&lt;/div&gt;" style="text;html=1;align=center;verticalAlign=middle;resizable=0;points=[];autosize=1;strokeColor=none;fillColor=none;" vertex="1" parent="1">
          <mxGeometry x="1020" y="650" width="80" height="60" as="geometry" />
        </mxCell>
        <mxCell id="BOXuw702CfrsA8beuOnQ-10" value="" style="endArrow=classic;html=1;rounded=0;exitX=1;exitY=0.5;exitDx=0;exitDy=0;entryX=0;entryY=0.5;entryDx=0;entryDy=0;entryPerimeter=0;" edge="1" parent="1" source="BOXuw702CfrsA8beuOnQ-5" target="BOXuw702CfrsA8beuOnQ-47">
          <mxGeometry width="50" height="50" relative="1" as="geometry">
            <mxPoint x="1180" y="340" as="sourcePoint" />
            <mxPoint x="1390" y="469.9999999999998" as="targetPoint" />
            <Array as="points">
              <mxPoint x="1300" y="800" />
              <mxPoint x="1300" y="475" />
            </Array>
          </mxGeometry>
        </mxCell>
        <mxCell id="BOXuw702CfrsA8beuOnQ-12" value="Oracle DB" style="text;html=1;align=center;verticalAlign=middle;resizable=0;points=[];autosize=1;strokeColor=none;fillColor=none;" vertex="1" parent="1">
          <mxGeometry x="935" y="500" width="80" height="30" as="geometry" />
        </mxCell>
        <mxCell id="BOXuw702CfrsA8beuOnQ-17" value="Node Expres API&lt;div&gt;(Backend)&lt;/div&gt;" style="text;html=1;align=center;verticalAlign=middle;resizable=0;points=[];autosize=1;strokeColor=none;fillColor=none;" vertex="1" parent="1">
          <mxGeometry x="1401.75" y="512.37" width="110" height="40" as="geometry" />
        </mxCell>
        <mxCell id="BOXuw702CfrsA8beuOnQ-21" value="Cdady Webserver&lt;div&gt;(Frontend)&lt;/div&gt;" style="text;html=1;align=center;verticalAlign=middle;resizable=0;points=[];autosize=1;strokeColor=none;fillColor=none;" vertex="1" parent="1">
          <mxGeometry x="1640" y="510" width="120" height="40" as="geometry" />
        </mxCell>
        <mxCell id="BOXuw702CfrsA8beuOnQ-27" value="AMS (Posse) On Prem" style="text;html=1;align=center;verticalAlign=middle;whiteSpace=wrap;rounded=0;" vertex="1" parent="1">
          <mxGeometry x="830" y="375" width="170" height="30" as="geometry" />
        </mxCell>
        <mxCell id="BOXuw702CfrsA8beuOnQ-28" value="&lt;span&gt;&lt;span dir=&quot;ltr&quot; class=&quot;ui-provider a b c d e f g h i j k l m n o p q r s t u v w x y z ab ac ae af ag ah ai aj ak&quot;&gt;yyyymmdd_OMRR_Transparency.csv&lt;/span&gt;&lt;/span&gt;" style="text;html=1;align=center;verticalAlign=middle;whiteSpace=wrap;rounded=0;" vertex="1" parent="1">
          <mxGeometry x="1050" y="890" width="260" height="30" as="geometry" />
        </mxCell>
        <mxCell id="BOXuw702CfrsA8beuOnQ-33" value="" style="shape=image;html=1;verticalAlign=top;verticalLabelPosition=bottom;labelBackgroundColor=#ffffff;imageAspect=0;aspect=fixed;image=https://cdn3.iconfinder.com/data/icons/document-icons-2/30/647702-excel-128.png" vertex="1" parent="1">
          <mxGeometry x="1165" y="760" width="50" height="50" as="geometry" />
        </mxCell>
        <mxCell id="BOXuw702CfrsA8beuOnQ-35" value="API Rest Call&lt;div&gt;&amp;nbsp;(&lt;span style=&quot;background-color: initial;&quot;&gt;Read and puts&amp;nbsp;&lt;/span&gt;&lt;/div&gt;&lt;div&gt;&lt;span style=&quot;background-color: initial;&quot;&gt;into memory)&lt;/span&gt;&lt;/div&gt;" style="text;html=1;align=center;verticalAlign=middle;resizable=0;points=[];autosize=1;strokeColor=none;fillColor=none;" vertex="1" parent="1">
          <mxGeometry x="1205" y="580" width="110" height="60" as="geometry" />
        </mxCell>
        <mxCell id="BOXuw702CfrsA8beuOnQ-41" value="" style="sketch=0;pointerEvents=1;shadow=0;dashed=0;html=1;strokeColor=none;fillColor=#434445;aspect=fixed;labelPosition=center;verticalLabelPosition=bottom;verticalAlign=top;align=center;outlineConnect=0;shape=mxgraph.vvd.web_browser;" vertex="1" parent="1">
          <mxGeometry x="1882.07" y="430.75" width="65.85" height="46.75" as="geometry" />
        </mxCell>
        <mxCell id="BOXuw702CfrsA8beuOnQ-42" value="" style="sketch=0;outlineConnect=0;fontColor=#232F3E;gradientColor=none;fillColor=#232F3D;strokeColor=none;dashed=0;verticalLabelPosition=bottom;verticalAlign=top;align=center;html=1;fontSize=12;fontStyle=0;aspect=fixed;pointerEvents=1;shape=mxgraph.aws4.traditional_server;" vertex="1" parent="1">
          <mxGeometry x="1673.17" y="407" width="53.65" height="93" as="geometry" />
        </mxCell>
        <mxCell id="BOXuw702CfrsA8beuOnQ-43" value="" style="endArrow=classic;html=1;rounded=0;" edge="1" parent="1" source="BOXuw702CfrsA8beuOnQ-42" target="BOXuw702CfrsA8beuOnQ-41">
          <mxGeometry width="50" height="50" relative="1" as="geometry">
            <mxPoint x="1450" y="740" as="sourcePoint" />
            <mxPoint x="1500" y="690" as="targetPoint" />
          </mxGeometry>
        </mxCell>
        <mxCell id="BOXuw702CfrsA8beuOnQ-44" value="OMMR webpage" style="text;html=1;align=center;verticalAlign=middle;resizable=0;points=[];autosize=1;strokeColor=none;fillColor=none;" vertex="1" parent="1">
          <mxGeometry x="1860" y="480" width="110" height="30" as="geometry" />
        </mxCell>
        <mxCell id="BOXuw702CfrsA8beuOnQ-45" value="" style="shape=cylinder3;whiteSpace=wrap;html=1;boundedLbl=1;backgroundOutline=1;size=15;" vertex="1" parent="1">
          <mxGeometry x="945" y="440" width="60" height="60" as="geometry" />
        </mxCell>
        <mxCell id="BOXuw702CfrsA8beuOnQ-46" value="OpenShift Cloud" style="text;html=1;align=center;verticalAlign=middle;resizable=0;points=[];autosize=1;strokeColor=none;fillColor=none;" vertex="1" parent="1">
          <mxGeometry x="1630" y="595" width="110" height="30" as="geometry" />
        </mxCell>
        <mxCell id="BOXuw702CfrsA8beuOnQ-47" value="" style="outlineConnect=0;dashed=0;verticalLabelPosition=bottom;verticalAlign=top;align=center;html=1;shape=mxgraph.aws3.android;fillColor=#8CC64F;gradientColor=none;" vertex="1" parent="1">
          <mxGeometry x="1420" y="433.37" width="73.5" height="84" as="geometry" />
        </mxCell>
        <mxCell id="BOXuw702CfrsA8beuOnQ-48" value="" style="sketch=0;outlineConnect=0;fontColor=#232F3E;gradientColor=none;fillColor=#232F3D;strokeColor=none;dashed=0;verticalLabelPosition=bottom;verticalAlign=top;align=center;html=1;fontSize=12;fontStyle=0;aspect=fixed;pointerEvents=1;shape=mxgraph.aws4.user;" vertex="1" parent="1">
          <mxGeometry x="1030" y="590" width="60" height="60" as="geometry" />
        </mxCell>
        <mxCell id="BOXuw702CfrsA8beuOnQ-54" value="" style="endArrow=classic;html=1;rounded=0;entryX=1;entryY=0.25;entryDx=0;entryDy=0;entryPerimeter=0;" edge="1" parent="1" source="BOXuw702CfrsA8beuOnQ-42" target="BOXuw702CfrsA8beuOnQ-47">
          <mxGeometry width="50" height="50" relative="1" as="geometry">
            <mxPoint x="1670" y="496" as="sourcePoint" />
            <mxPoint x="1560" y="640" as="targetPoint" />
          </mxGeometry>
        </mxCell>
        <mxCell id="BOXuw702CfrsA8beuOnQ-55" value="API Rest Call&lt;div&gt;&amp;nbsp;( Load/Refresh data)&amp;nbsp;&lt;/div&gt;&lt;div&gt;&lt;br&gt;&lt;/div&gt;" style="text;html=1;align=center;verticalAlign=middle;resizable=0;points=[];autosize=1;strokeColor=none;fillColor=none;" vertex="1" parent="1">
          <mxGeometry x="1505" y="433.12" width="140" height="60" as="geometry" />
        </mxCell>
        <mxCell id="BOXuw702CfrsA8beuOnQ-56" value="" style="sketch=0;outlineConnect=0;fontColor=#232F3E;gradientColor=none;fillColor=#232F3D;strokeColor=none;dashed=0;verticalLabelPosition=bottom;verticalAlign=top;align=center;html=1;fontSize=12;fontStyle=0;aspect=fixed;pointerEvents=1;shape=mxgraph.aws4.user;" vertex="1" parent="1">
          <mxGeometry x="1960" y="445.37" width="60" height="60" as="geometry" />
        </mxCell>
      </root>
    </mxGraphModel>
  </diagram>
</mxfile>
